<?xml version="1.0" encoding="UTF-8" standalone="no"?>
<svg
   width="594"
   height="300"
   viewBox="0 0 157.1625 79.375002"
   version="1.1"
   id="svg8"
   inkscape:version="1.2.2 (b0a8486541, 2022-12-01)"
   sodipodi:docname="site-logo.svg"
   inkscape:export-filename="site-logo.png"
   inkscape:export-xdpi="96"
   inkscape:export-ydpi="96"
   xmlns:inkscape="http://www.inkscape.org/namespaces/inkscape"
   xmlns:sodipodi="http://sodipodi.sourceforge.net/DTD/sodipodi-0.dtd"
   xmlns="http://www.w3.org/2000/svg"
   xmlns:svg="http://www.w3.org/2000/svg"
   xmlns:rdf="http://www.w3.org/1999/02/22-rdf-syntax-ns#"
   xmlns:cc="http://creativecommons.org/ns#"
   xmlns:dc="http://purl.org/dc/elements/1.1/">
  <defs
     id="defs2" />
  <sodipodi:namedview
     id="base"
     pagecolor="#ffffff"
     bordercolor="#666666"
     borderopacity="1.0"
     inkscape:pageopacity="0.0"
     inkscape:pageshadow="2"
     inkscape:zoom="0.96167787"
     inkscape:cx="-166.37588"
     inkscape:cy="181.97362"
     inkscape:document-units="mm"
     inkscape:current-layer="g914"
     inkscape:document-rotation="0"
     showgrid="true"
     inkscape:window-width="1343"
     inkscape:window-height="717"
     inkscape:window-x="15"
     inkscape:window-y="0"
     inkscape:window-maximized="0"
     inkscape:showpageshadow="2"
     inkscape:pagecheckerboard="0"
     inkscape:deskcolor="#d1d1d1">
    <inkscape:grid
       type="xygrid"
       id="grid8252" />
  </sodipodi:namedview>
  <metadata
     id="metadata5">
    <rdf:RDF>
      <cc:Work
         rdf:about="">
        <dc:format>image/svg+xml</dc:format>
        <dc:type
           rdf:resource="http://purl.org/dc/dcmitype/StillImage" />
      </cc:Work>
    </rdf:RDF>
  </metadata>
  <g
     inkscape:label="Layer 1"
     inkscape:groupmode="layer"
     id="layer1">
    <g
       id="g914"
       transform="matrix(1.1675652,0,0,1.1675652,-25.893289,-12.629905)">
      <g
         id="g8250"
         transform="matrix(0.53475905,0,0,0.53475905,9.6017439,-8.2688078)">
        <g
           id="g1546"
           style="fill:#241f31">
          <g
             aria-label="VuT"
             id="text835"
             style="font-style:normal;font-weight:normal;font-size:97.661px;line-height:1.25;font-family:sans-serif;fill:#241f31;fill-opacity:1;stroke:none;stroke-width:2.44152">
            <path
               d="M 100.14664,66.381331 67.767825,132.33112 q -0.762976,1.52595 -2.288929,2.43199 -1.478268,0.95372 -3.290337,0.95372 -1.764383,0 -3.290336,-0.95372 -1.478268,-0.90604 -2.28893,-2.43199 L 24.27816,66.381331 H 38.154797 L 62.188559,115.64101 86.317694,66.381331 Z"
               style="font-style:normal;font-variant:normal;font-weight:normal;font-stretch:normal;font-family:Audiowide;-inkscape-font-specification:Audiowide;fill:#241f31;stroke-width:2.44152"
               id="path840" />
            <path
               d="m 160.42179,128.51624 q 0,1.33521 -0.47686,2.47967 -0.47686,1.14447 -1.33521,2.00281 -0.81066,0.81067 -1.95512,1.28753 -1.09678,0.47686 -2.38431,0.47686 H 126.2309 q -2.28893,0 -4.91166,-0.52455 -2.57504,-0.52455 -5.1024,-1.66901 -2.52736,-1.19215 -4.91167,-2.95653 -2.33661,-1.81207 -4.10099,-4.33943 -1.76439,-2.57505 -2.86117,-5.91307 -1.04909,-3.33803 -1.04909,-7.5344 V 83.214502 h 12.39837 v 28.611618 q 0,2.43199 0.81066,4.38712 0.85835,1.90744 2.28893,3.29034 1.43058,1.38289 3.33802,2.14587 1.95513,0.71529 4.19638,0.71529 h 21.69714 V 83.214502 h 12.39837 z"
               style="font-style:normal;font-variant:normal;font-weight:normal;font-stretch:normal;font-family:Audiowide;-inkscape-font-specification:Audiowide;fill:#241f31;stroke-width:2.44152"
               id="path842" />
            <path
               d="m 235.24119,78.7797 h -27.3241 v 55.98341 H 195.51872 V 78.7797 H 168.14693 V 66.381331 h 67.09426 z"
               style="font-style:normal;font-variant:normal;font-weight:normal;font-stretch:normal;font-family:Audiowide;-inkscape-font-specification:Audiowide;fill:#241f31;stroke-width:2.44152"
               id="path844" />
          </g>
          <g
             id="g904"
             style="fill:#241f31"
             transform="matrix(1.8892538,0,0,1.8892538,-66.0711,-105.26869)">
            <rect
               style="fill:#241f31;stroke:none;stroke-width:0.0117647"
               id="rect837"
               width="77.696259"
               height="6.564342"
               x="51.379108"
               y="90.85643"
               ry="0" />
            <rect
               style="fill:#241f31;stroke:none;stroke-width:0.00251755"
               id="rect837-5"
               width="6.5654979"
               height="3.5572994"
               x="89.648979"
               y="97.234131"
               ry="0" />
            <rect
               style="fill:#241f31;stroke:none;stroke-width:0.00251755"
               id="rect837-5-4"
               width="6.5654979"
               height="3.5572994"
               x="113.3221"
               y="96.942291"
               ry="0" />
          </g>
        </g>
        <g
           aria-label="e"
           id="text899"
           style="font-style:normal;font-weight:normal;font-size:91.285px;line-height:1.25;font-family:sans-serif;fill:#e5a50a;fill-opacity:1;stroke:none;stroke-width:2.28212">
          <path
             d="m 273.93024,103.01476 q 0,2.40693 -0.84688,5.21501 -0.84688,2.76351 -2.76351,5.17044 -1.87206,2.36236 -4.94758,3.96697 -3.03094,1.60462 -7.39907,1.60462 h -20.90463 v -11.00947 h 20.90463 q 2.36235,0 3.65496,-1.42632 1.29261,-1.47091 1.29261,-3.6104 0,-2.27321 -1.4709,-3.565818 -1.42633,-1.29261 -3.47667,-1.29261 h -20.90463 q -2.36235,0 -3.65496,1.470901 -1.29261,1.426327 -1.29261,3.565817 v 16.17991 q 0,2.31779 1.42633,3.6104 1.4709,1.29261 3.61039,1.29261 h 20.81548 v 11.05404 h -20.90463 q -2.40693,0 -5.21501,-0.84688 -2.76351,-0.84688 -5.17044,-2.71894 -2.36235,-1.91663 -3.96697,-4.94758 -1.60462,-3.07552 -1.60462,-7.44365 v -16.26905 q 0,-2.40693 0.84688,-5.170442 0.84688,-2.808084 2.71894,-5.17044 1.91663,-2.406929 4.94757,-4.011548 3.07552,-1.604619 7.44365,-1.604619 h 20.90463 q 2.40692,0 5.17044,0.846882 2.80808,0.846883 5.17043,2.763511 2.40693,1.872056 4.01155,4.947576 1.60462,3.030948 1.60462,7.39908 z"
             style="font-style:normal;font-variant:normal;font-weight:normal;font-stretch:normal;font-family:Audiowide;-inkscape-font-specification:Audiowide;fill:#e5a50a;stroke-width:2.28212"
             id="path847" />
        </g>
      </g>
    </g>
  </g>
</svg>
